<mxfile host="app.diagrams.net" modified="2023-10-12T17:34:38.338Z" agent="Mozilla/5.0 (Windows NT 10.0; Win64; x64) AppleWebKit/537.36 (KHTML, like Gecko) Chrome/118.0.0.0 Safari/537.36" etag="M748ZlVKDS04KZChu8pO" version="22.0.4" type="github">
  <diagram id="C5RBs43oDa-KdzZeNtuy" name="Page-1">
    <mxGraphModel dx="1877" dy="2872" grid="1" gridSize="10" guides="1" tooltips="1" connect="1" arrows="1" fold="1" page="1" pageScale="1" pageWidth="827" pageHeight="1169" math="0" shadow="0">
      <root>
        <mxCell id="WIyWlLk6GJQsqaUBKTNV-0" />
        <mxCell id="WIyWlLk6GJQsqaUBKTNV-1" parent="WIyWlLk6GJQsqaUBKTNV-0" />
        <mxCell id="lMB-qXwNFsFDYNb4Py0Q-7" style="edgeStyle=orthogonalEdgeStyle;rounded=0;orthogonalLoop=1;jettySize=auto;html=1;exitX=0.5;exitY=1;exitDx=0;exitDy=0;entryX=0.5;entryY=0;entryDx=0;entryDy=0;" edge="1" parent="WIyWlLk6GJQsqaUBKTNV-1" source="lMB-qXwNFsFDYNb4Py0Q-0" target="lMB-qXwNFsFDYNb4Py0Q-2">
          <mxGeometry relative="1" as="geometry" />
        </mxCell>
        <mxCell id="lMB-qXwNFsFDYNb4Py0Q-0" value="&lt;b&gt;&lt;font style=&quot;font-size: 18px;&quot;&gt;START&lt;/font&gt;&lt;/b&gt;" style="rounded=1;whiteSpace=wrap;html=1;arcSize=50;" vertex="1" parent="WIyWlLk6GJQsqaUBKTNV-1">
          <mxGeometry x="40" y="-1480" width="120" height="40" as="geometry" />
        </mxCell>
        <mxCell id="lMB-qXwNFsFDYNb4Py0Q-1" value="&lt;b&gt;&lt;font style=&quot;font-size: 18px;&quot;&gt;END&lt;/font&gt;&lt;/b&gt;" style="rounded=1;whiteSpace=wrap;html=1;arcSize=50;" vertex="1" parent="WIyWlLk6GJQsqaUBKTNV-1">
          <mxGeometry x="40" y="-960" width="120" height="40" as="geometry" />
        </mxCell>
        <mxCell id="lMB-qXwNFsFDYNb4Py0Q-8" style="edgeStyle=orthogonalEdgeStyle;rounded=0;orthogonalLoop=1;jettySize=auto;html=1;exitX=0.5;exitY=1;exitDx=0;exitDy=0;entryX=0.5;entryY=0;entryDx=0;entryDy=0;" edge="1" parent="WIyWlLk6GJQsqaUBKTNV-1" source="lMB-qXwNFsFDYNb4Py0Q-2" target="lMB-qXwNFsFDYNb4Py0Q-3">
          <mxGeometry relative="1" as="geometry" />
        </mxCell>
        <mxCell id="lMB-qXwNFsFDYNb4Py0Q-2" value="a = 0" style="shape=hexagon;perimeter=hexagonPerimeter2;whiteSpace=wrap;html=1;fixedSize=1;" vertex="1" parent="WIyWlLk6GJQsqaUBKTNV-1">
          <mxGeometry x="40" y="-1400" width="120" height="40" as="geometry" />
        </mxCell>
        <mxCell id="lMB-qXwNFsFDYNb4Py0Q-9" style="edgeStyle=orthogonalEdgeStyle;rounded=0;orthogonalLoop=1;jettySize=auto;html=1;exitX=0.5;exitY=1;exitDx=0;exitDy=0;entryX=0.5;entryY=0;entryDx=0;entryDy=0;" edge="1" parent="WIyWlLk6GJQsqaUBKTNV-1" source="lMB-qXwNFsFDYNb4Py0Q-3" target="lMB-qXwNFsFDYNb4Py0Q-4">
          <mxGeometry relative="1" as="geometry" />
        </mxCell>
        <mxCell id="lMB-qXwNFsFDYNb4Py0Q-3" value="&quot; Menampilkan kelipatan 5 dari 0 - 100 &quot;" style="shape=parallelogram;perimeter=parallelogramPerimeter;whiteSpace=wrap;html=1;fixedSize=1;" vertex="1" parent="WIyWlLk6GJQsqaUBKTNV-1">
          <mxGeometry x="-30" y="-1320" width="260" height="40" as="geometry" />
        </mxCell>
        <mxCell id="lMB-qXwNFsFDYNb4Py0Q-10" style="edgeStyle=orthogonalEdgeStyle;rounded=0;orthogonalLoop=1;jettySize=auto;html=1;exitX=0.5;exitY=1;exitDx=0;exitDy=0;entryX=0.5;entryY=0;entryDx=0;entryDy=0;" edge="1" parent="WIyWlLk6GJQsqaUBKTNV-1" source="lMB-qXwNFsFDYNb4Py0Q-4" target="lMB-qXwNFsFDYNb4Py0Q-5">
          <mxGeometry relative="1" as="geometry" />
        </mxCell>
        <mxCell id="lMB-qXwNFsFDYNb4Py0Q-4" value="a, &quot; &quot;" style="shape=parallelogram;perimeter=parallelogramPerimeter;whiteSpace=wrap;html=1;fixedSize=1;" vertex="1" parent="WIyWlLk6GJQsqaUBKTNV-1">
          <mxGeometry x="40" y="-1240" width="120" height="40" as="geometry" />
        </mxCell>
        <mxCell id="lMB-qXwNFsFDYNb4Py0Q-11" style="edgeStyle=orthogonalEdgeStyle;rounded=0;orthogonalLoop=1;jettySize=auto;html=1;exitX=0.5;exitY=1;exitDx=0;exitDy=0;entryX=0.5;entryY=0;entryDx=0;entryDy=0;" edge="1" parent="WIyWlLk6GJQsqaUBKTNV-1" source="lMB-qXwNFsFDYNb4Py0Q-5" target="lMB-qXwNFsFDYNb4Py0Q-6">
          <mxGeometry relative="1" as="geometry" />
        </mxCell>
        <mxCell id="lMB-qXwNFsFDYNb4Py0Q-5" value="&lt;p class=&quot;MsoListParagraph&quot;&gt;&lt;font style=&quot;font-size: 14px;&quot;&gt;a&lt;/font&gt;&amp;nbsp;&lt;span style=&quot;font-family: Wingdings;&quot; lang=&quot;EN-US&quot;&gt;ÃŸ&lt;/span&gt;&lt;span style=&quot;font-family:&amp;quot;Times New Roman&amp;quot;,serif&quot; lang=&quot;EN-US&quot;&gt; &lt;/span&gt;&lt;span style=&quot;&quot; lang=&quot;EN-US&quot;&gt;&lt;font style=&quot;font-size: 14px;&quot;&gt;a + 5&lt;/font&gt;&lt;/span&gt;&lt;/p&gt;" style="rounded=0;whiteSpace=wrap;html=1;" vertex="1" parent="WIyWlLk6GJQsqaUBKTNV-1">
          <mxGeometry x="40" y="-1160" width="120" height="40" as="geometry" />
        </mxCell>
        <mxCell id="lMB-qXwNFsFDYNb4Py0Q-12" style="edgeStyle=orthogonalEdgeStyle;rounded=0;orthogonalLoop=1;jettySize=auto;html=1;exitX=0.5;exitY=1;exitDx=0;exitDy=0;entryX=0.5;entryY=0;entryDx=0;entryDy=0;" edge="1" parent="WIyWlLk6GJQsqaUBKTNV-1" source="lMB-qXwNFsFDYNb4Py0Q-6" target="lMB-qXwNFsFDYNb4Py0Q-1">
          <mxGeometry relative="1" as="geometry" />
        </mxCell>
        <mxCell id="lMB-qXwNFsFDYNb4Py0Q-13" style="edgeStyle=orthogonalEdgeStyle;rounded=0;orthogonalLoop=1;jettySize=auto;html=1;exitX=0;exitY=0.5;exitDx=0;exitDy=0;" edge="1" parent="WIyWlLk6GJQsqaUBKTNV-1" source="lMB-qXwNFsFDYNb4Py0Q-6">
          <mxGeometry relative="1" as="geometry">
            <mxPoint x="100" y="-1260" as="targetPoint" />
            <Array as="points">
              <mxPoint x="-40" y="-1040" />
              <mxPoint x="-40" y="-1260" />
              <mxPoint x="100" y="-1260" />
            </Array>
          </mxGeometry>
        </mxCell>
        <mxCell id="lMB-qXwNFsFDYNb4Py0Q-6" value="a &amp;lt;= 100" style="rhombus;whiteSpace=wrap;html=1;" vertex="1" parent="WIyWlLk6GJQsqaUBKTNV-1">
          <mxGeometry x="60" y="-1080" width="80" height="80" as="geometry" />
        </mxCell>
        <mxCell id="lMB-qXwNFsFDYNb4Py0Q-14" value="&lt;b&gt;F&lt;/b&gt;" style="text;html=1;align=center;verticalAlign=middle;resizable=0;points=[];autosize=1;strokeColor=none;fillColor=none;" vertex="1" parent="WIyWlLk6GJQsqaUBKTNV-1">
          <mxGeometry x="100" y="-1002" width="30" height="30" as="geometry" />
        </mxCell>
        <mxCell id="lMB-qXwNFsFDYNb4Py0Q-15" value="&lt;b&gt;T&lt;/b&gt;" style="text;html=1;align=center;verticalAlign=middle;resizable=0;points=[];autosize=1;strokeColor=none;fillColor=none;" vertex="1" parent="WIyWlLk6GJQsqaUBKTNV-1">
          <mxGeometry x="30" y="-1072" width="30" height="30" as="geometry" />
        </mxCell>
      </root>
    </mxGraphModel>
  </diagram>
</mxfile>
